# xmcd
#
# Track frame offsets:
#	150
#	15853
#	59168
#	85610
#	98773
#	154650
#	189040
#	214818
#	254418
#	287420
#	312473
#
# Disc length: 4494 seconds
#
# Revision: 0
# Processed by: cddbd v1.5.2PL0 Copyright (c) Steve Scherf et al.
# Submitted via: EasyCDDAExtractor 16.0.6.1
#
DISCID=88118c0b
DTITLE=Συλλογικός δίσκος - Ωδείον Ηρώδου Αττ., 6-9-1988-Ελ. Καραΐνδρου
DYEAR=1988
DGENRE=Κινηματογραφική
TTITLE0=Άνευ ερμηνευτού - Τοπίο στην ομίχλη (Θέμα του πατέρα)
TTITLE1=Φαραντούρη Μαρία - Ρόζα (Τεργέστη-Πανδοχείο-Άρια Ρόζας)
TTITLE2=Άνευ ερμηνευτού - Περιπλάνηση (Σπίτια Αλεξάνδρειας)
TTITLE3=Καραΐνδρου Ελένη - Η τιμή της αγάπης (Απόφαση-Τιμή αγάπης)
TTITLE4=Νταλάρας Γιώργος - Ταξείδι στα Κύθηρα (Ταξ.-Θ. Αλέξ.-Μπλουζ κ.ά)
TTITLE5=Φαραντούρη Μαρία - Ο γλάρος (Ο γλάρος-Τραγ. της λίμνης)
TTITLE6=Άνευ ερμηνευτού - Καλή πατρίδα σύντροφε (Πορεία-Επιστροφή)
TTITLE7=Νταλάρας Γιώργος - Ο μελισσοκόμος (Βουρκωμένα-Βαλς κ.ά.)
TTITLE8=Άνευ ερμηνευτού - Τοπίο στην ομίχλη (Θ. ταξ.-Θ. πατέρα)
TTITLE9=Άνευ ερμηνευτού - Ο μελισσοκόμος (Αυτοσχ. θ. αποχαιρετισμού)
TTITLE10=Άνευ ερμηνευτού - [Ανώνυμο]
EXTD=
EXTT0=
EXTT1=
EXTT2=
EXTT3=
EXTT4=
EXTT5=
EXTT6=
EXTT7=
EXTT8=
EXTT9=
EXTT10=
PLAYORDER=
